<?xml version="1.0" standalone="no"?><!DOCTYPE svg PUBLIC "-//W3C//DTD SVG 1.1//EN" "http://www.w3.org/Graphics/SVG/1.1/DTD/svg11.dtd"><svg t="1772176279636" class="icon" viewBox="0 0 1024 1024" version="1.1" xmlns="http://www.w3.org/2000/svg" p-id="26044" xmlns:xlink="http://www.w3.org/1999/xlink" width="256" height="256"><path d="M512 513.6384m-458.9056 0a458.9056 458.9056 0 1 0 917.8112 0 458.9056 458.9056 0 1 0-917.8112 0Z" fill="#B3B3FA" p-id="26045"></path><path d="M645.4272 265.0624A459.1616 459.1616 0 0 0 205.6192 855.04 459.008 459.008 0 0 0 951.808 382.3616a456.96 456.96 0 0 0-306.3808-117.2992z" fill="#8181F6" p-id="26046"></path><path d="M472.1152 340.2752l45.6192 30.208V254.976h-123.904v117.76L450.56 339.712a20.48 20.48 0 0 1 21.5552 0.5632z" fill="#5D5DDC" p-id="26047"></path><path d="M661.248 254.976h-102.4v153.6a20.48 20.48 0 0 1-20.48 20.48 20.48 20.48 0 0 1-11.264-3.3792l-66.56-44.1856-76.8512 44.7488a20.48 20.48 0 0 1-30.72-17.664V262.5536a108.2368 108.2368 0 0 0-68.5056 100.6592v335.104a108.2368 108.2368 0 0 0 108.2368 108.2368h268.544a108.288 108.288 0 0 0 108.2368-108.2368V363.2128a108.2368 108.2368 0 0 0-108.2368-108.2368z m-287.8976 315.2384H558.08a20.48 20.48 0 0 1 0 40.96H373.3504a20.48 20.48 0 0 1 0-40.96z m311.1936 123.7504H373.3504a20.48 20.48 0 0 1 0-40.96h311.1936a20.48 20.48 0 1 1 0 40.96z" fill="#5D5DDC" p-id="26048"></path><path d="M461.9264 325.9392l43.1616 28.5696V245.248H387.8912v111.5136l53.5552-31.3856a19.3024 19.3024 0 0 1 20.48 0.5632z" fill="#FFFFFF" p-id="26049"></path><path d="M640.8192 245.248h-96.9728v145.3056a19.3536 19.3536 0 0 1-30.0544 16.128L450.56 364.9024l-72.2432 42.3424a19.3536 19.3536 0 0 1-29.184-16.6912v-138.24a102.4 102.4 0 0 0-64.6656 95.2832v316.9792a102.4 102.4 0 0 0 102.4 102.4h254.0032a102.4 102.4 0 0 0 102.4-102.4V347.5968a102.4 102.4 0 0 0-102.4512-102.3488zM368.64 543.4368h174.592a19.3536 19.3536 0 1 1 0 38.7072H368.64a19.3536 19.3536 0 1 1 0-38.7072zM662.8352 660.48H368.64a19.4048 19.4048 0 1 1 0-38.7584h294.2976a19.4048 19.4048 0 1 1 0 38.7584z" fill="#FFFFFF" p-id="26050"></path><path d="M349.1328 641.0752a19.4048 19.4048 0 0 1 19.5072-19.4048h183.552a166.5024 166.5024 0 0 0-18.9952-39.5264H368.64a19.3536 19.3536 0 1 1 0-38.7072h129.1264a166.2464 166.2464 0 0 0-213.2992 4.5056v116.6336a102.4 102.4 0 0 0 102.4 102.4h144.8448a165.5808 165.5808 0 0 0 28.7232-93.44c0-4.4032 0-8.7552-0.5632-13.056H368.64a19.4048 19.4048 0 0 1-19.5072-19.4048z" fill="#CACAFF" p-id="26051"></path></svg>